<svg xmlns="http://www.w3.org/2000/svg" fill="none" viewBox="0 0 96 89">
  <path fill="#1B3764" d="M18.013 11.173h2.141l2.956 8.595h-2.032l-.583-1.923h-2.83l-.584 1.923h-2.032l2.964-8.595Zm2.066 5.303-1-3.304-.999 3.304h1.999ZM33.158 19.768v-5.123l-1.852 3.729h-1.091l-1.852-3.728v5.122h-1.986v-8.595h2.154l2.225 4.493 2.238-4.493h2.142v8.595h-1.978ZM41.38 11.173h2.14l2.957 8.595h-2.032l-.584-1.923h-2.83l-.584 1.923h-2.032l2.964-8.595Zm2.065 5.303-1-3.304-.998 3.304h1.998ZM49.26 18.282l4.384-5.362h-4.211v-1.743h6.596v1.49l-4.178 5.363h4.224v1.742h-6.814v-1.49ZM65.775 18.026v1.742h-6.043v-8.595h5.933v1.743h-3.947v1.67h3.389V16.2h-3.389v1.826h4.056ZM71.392 14.855v4.917h-1.986v-8.599h1.575l3.984 5.06v-5.06h1.986v8.595h-1.62l-3.939-4.913ZM24.315 29.916c0-.524.097-1.037.29-1.545.193-.504.475-.961.848-1.373a4.14 4.14 0 0 1 1.357-.986c.533-.248 1.137-.37 1.813-.37.806 0 1.508.172 2.1.52.592.35 1.037.799 1.327 1.357l-1.525 1.066c-.13-.306-.302-.545-.516-.713a1.951 1.951 0 0 0-.701-.357 2.898 2.898 0 0 0-.73-.105c-.379 0-.71.075-.992.222a2.065 2.065 0 0 0-.7.6c-.186.253-.324.53-.412.836a3.314 3.314 0 0 0-.135.92c0 .34.05.667.156.982.105.315.256.592.453.836.197.243.437.432.722.575.282.143.592.21.932.21.244 0 .487-.042.74-.122.251-.08.482-.21.696-.382.215-.172.378-.403.492-.684l1.62.957c-.168.42-.449.777-.835 1.08a4.35 4.35 0 0 1-1.314.684c-.488.155-.97.235-1.449.235a3.827 3.827 0 0 1-1.713-.382 4.293 4.293 0 0 1-1.344-1.016 4.753 4.753 0 0 1-.873-1.428 4.525 4.525 0 0 1-.307-1.617ZM39.209 34.358c-.647 0-1.23-.121-1.75-.37a4.219 4.219 0 0 1-1.345-.99 4.525 4.525 0 0 1-.864-1.403 4.434 4.434 0 0 1-.303-1.616c0-.571.105-1.117.32-1.633.213-.517.512-.979.894-1.386a4.192 4.192 0 0 1 1.36-.962 4.148 4.148 0 0 1 1.717-.352c.639 0 1.218.121 1.739.37.52.247.97.579 1.343.999.374.42.664.89.865 1.41a4.37 4.37 0 0 1-.012 3.225 4.411 4.411 0 0 1-2.255 2.355 4.08 4.08 0 0 1-1.709.353ZM36.967 30c0 .332.05.65.147.961.096.311.24.588.428.828.19.243.424.436.71.579.281.147.604.218.97.218.377 0 .71-.075.99-.222.282-.147.517-.349.702-.6a2.71 2.71 0 0 0 .415-.84c.093-.311.139-.626.139-.95 0-.331-.046-.65-.147-.957a2.626 2.626 0 0 0-.437-.831 2.021 2.021 0 0 0-.714-.575 2.137 2.137 0 0 0-.957-.206c-.378 0-.71.071-.986.218a2.11 2.11 0 0 0-.702.588 2.576 2.576 0 0 0-.424.836 3.51 3.51 0 0 0-.134.953ZM47.065 34.295V25.7h3.875c.403 0 .777.084 1.121.248.344.164.638.386.89.668.252.277.445.592.588.94.143.349.21.697.21 1.054 0 .357-.055.693-.168 1.012-.113.32-.273.605-.483.86-.21.257-.462.463-.752.622l1.89 3.196h-2.192l-1.646-2.772h-1.343V34.3h-1.99v-.005Zm1.986-4.5h1.818c.16 0 .306-.051.428-.152.126-.1.227-.24.306-.416.08-.176.122-.382.122-.617s-.046-.436-.139-.613a1.184 1.184 0 0 0-.344-.407.748.748 0 0 0-.436-.147H49.05v2.351ZM57.6 34.295V25.7h3.67c.41 0 .789.084 1.133.248.344.164.638.386.89.668.252.277.445.592.58.94.138.349.205.701.205 1.067 0 .491-.113.961-.344 1.402-.23.445-.55.806-.957 1.084-.408.277-.89.415-1.449.415h-1.742v2.771H57.6Zm1.981-4.5h1.621a.746.746 0 0 0 .424-.135.929.929 0 0 0 .315-.399c.08-.176.122-.395.122-.655 0-.265-.046-.487-.139-.66a.921.921 0 0 0-.352-.381.896.896 0 0 0-.441-.122h-1.55v2.351ZM66.567 34.296v-1.974h1.588v1.974h-1.588ZM18.911 70.019v.184c-.185.038-.328.101-.42.194-.096.092-.16.235-.189.428-.03.193-.046.466-.046.819v4.925a2.262 2.262 0 0 0-.302-.017c-.11 0-.223.004-.349.017l-4.098-4.48v2.666c0 .411.017.73.05.949.034.218.118.378.248.47.135.097.345.164.634.21v.185a6.242 6.242 0 0 0-.483-.025c-.197-.005-.382-.005-.554-.005-.134 0-.273 0-.415.005-.143.004-.26.012-.353.025v-.185c.193-.042.332-.11.424-.197.092-.088.155-.231.185-.429.029-.197.046-.47.046-.814V71a2.08 2.08 0 0 0-.046-.504.318.318 0 0 0-.19-.222 1.246 1.246 0 0 0-.42-.072v-.184c.093.004.21.012.354.016.142.005.28.009.415.009.155 0 .307-.004.454-.008.147-.005.281-.013.399-.017l3.787 3.997v-2.183c0-.412-.017-.731-.05-.95-.034-.218-.118-.377-.244-.474-.13-.096-.344-.168-.638-.201v-.185c.122.004.285.013.483.017.197.004.382.008.554.008.143 0 .281-.004.42-.008.134-.009.252-.017.344-.021ZM26.88 70.019c-.025.306-.042.604-.05.894-.009.285-.013.508-.013.663 0 .13.004.252.008.37.005.118.013.214.017.298h-.214c-.076-.512-.197-.915-.37-1.21-.172-.293-.373-.499-.604-.62a1.538 1.538 0 0 0-.727-.181h-.121c-.16 0-.282.012-.361.042a.255.255 0 0 0-.164.164c-.03.08-.042.205-.042.377v4.96c0 .167.012.289.042.373.03.084.08.138.164.168.08.03.201.042.36.042h.307c.202 0 .42-.067.643-.197.226-.135.432-.362.625-.68.193-.32.336-.76.437-1.315h.214c-.017.223-.03.508-.03.852 0 .156.005.374.01.664.003.285.024.583.054.894a36.463 36.463 0 0 0-1.063-.025c-.394-.004-.747-.004-1.053-.004h-.895c-.373 0-.768 0-1.184.004-.416.004-.802.013-1.163.025v-.185c.193-.012.332-.037.424-.075a.306.306 0 0 0 .185-.223c.03-.109.046-.277.046-.5v-4.593c0-.227-.017-.395-.046-.504a.318.318 0 0 0-.19-.222 1.246 1.246 0 0 0-.419-.072v-.184c.357.004.743.012 1.163.016.416.005.81.009 1.184.009h.895c.285 0 .604 0 .965-.004.357 0 .68-.009.966-.021Zm-1.344 3.166v.184h-1.574v-.184h1.574Zm.269-1.222a11.63 11.63 0 0 0-.034.806c.005.185.005.353.005.508 0 .155.004.323.008.508s.021.454.046.806h-.214a1.726 1.726 0 0 0-.227-.621 1.303 1.303 0 0 0-.44-.441 1.174 1.174 0 0 0-.622-.164v-.185a.976.976 0 0 0 .609-.193 1.6 1.6 0 0 0 .424-.478c.11-.19.185-.37.223-.55h.222v.004ZM32.377 70.019v.184c-.105.017-.177.072-.21.164a.66.66 0 0 0-.03.307c.017.113.038.218.072.31l1.398 3.935-.26.398 1.108-3.006.13.269-1.415 3.997c-.076-.004-.151-.012-.235-.012-.084 0-.168-.005-.256-.005-.08 0-.164 0-.244.005l-.235.012-2.145-5.773c-.08-.214-.168-.365-.27-.454a.467.467 0 0 0-.276-.138v-.185c.222.004.483.013.78.017.299.004.584.008.857.008s.513-.004.723-.008c.21-.013.377-.021.508-.025Zm6.692 0v.184c-.142.068-.29.202-.445.4-.155.197-.294.495-.415.898l-1.554 5.072c-.075-.004-.151-.013-.235-.013-.084 0-.168-.004-.256-.004-.08 0-.164 0-.244.004l-.235.013-1.944-5.933c-.05-.16-.113-.273-.193-.332a.466.466 0 0 0-.277-.1v-.185c.21.004.458.013.739.017a49.135 49.135 0 0 0 1.68 0c.256-.005.461-.013.617-.017v.185c-.194.004-.34.029-.446.071a.268.268 0 0 0-.18.222c-.017.11.013.27.088.488l1.268 3.85-.268.563.936-2.99c.172-.55.256-.983.248-1.302-.005-.319-.08-.546-.223-.684-.143-.139-.336-.21-.584-.218v-.185c.236.004.441.013.626.017.18.004.378.008.588.008.122 0 .248-.004.378-.008.126-.009.239-.017.331-.021ZM51.212 70.01v.185c-.143.068-.294.198-.454.383-.16.184-.336.47-.529.848l-1.667 3.304h-.621l-2.166-4.006c-.105-.197-.202-.331-.294-.407-.093-.075-.173-.109-.24-.109v-.193a12.861 12.861 0 0 0 1.277.054c.315 0 .655-.004 1.024-.016l1.012-.038v.193c-.155 0-.298.004-.424.017-.13.012-.223.042-.277.088-.055.046-.055.126 0 .243l1.398 2.684-.437.575.777-1.554c.26-.512.403-.915.428-1.213.03-.294-.025-.513-.163-.643-.135-.134-.328-.201-.576-.21v-.184c.236.004.441.012.626.016.18.005.378.009.588.009.122 0 .248-.004.378-.009.134-.004.248-.012.34-.016Zm-1.843 2.923v2.658c0 .222.016.39.05.5.034.109.097.184.189.222.092.038.23.063.416.076v.184c-.18-.012-.416-.02-.714-.025-.294-.004-.588-.004-.878-.004-.315 0-.617 0-.91.004-.295.004-.526.013-.69.025v-.184c.194-.013.332-.038.425-.076a.306.306 0 0 0 .184-.222c.03-.11.047-.278.047-.5v-1.898l1.007.575.874-1.335ZM56.968 69.889c.697 0 1.31.134 1.831.399.525.264.932.646 1.222 1.142.29.495.437 1.1.437 1.81 0 .692-.148 1.297-.446 1.813-.298.517-.71.924-1.234 1.214-.53.29-1.134.437-1.818.437-.697 0-1.31-.135-1.83-.4a2.878 2.878 0 0 1-1.223-1.146c-.29-.5-.436-1.1-.436-1.805 0-.693.15-1.297.449-1.814.298-.516.71-.924 1.234-1.213.525-.29 1.13-.437 1.814-.437Zm-.038.168c-.306 0-.575.138-.806.415-.226.278-.403.66-.529 1.147a7.025 7.025 0 0 0-.184 1.692c0 .655.07 1.222.214 1.709.142.483.331.856.575 1.12.24.261.504.396.798.396.306 0 .575-.139.806-.416.227-.277.403-.663.529-1.15a7.038 7.038 0 0 0 .185-1.689c0-.659-.072-1.23-.215-1.713-.142-.482-.331-.852-.575-1.116-.243-.265-.508-.395-.797-.395ZM63.288 70.019c.18.004.416.012.71.016.294.005.587.009.886.009.306 0 .604-.004.89-.008.285-.005.483-.009.6-.009.937 0 1.638.13 2.095.395.458.26.689.667.689 1.217 0 .227-.046.45-.139.668a1.526 1.526 0 0 1-.47.588c-.222.176-.525.315-.911.416-.386.1-.873.15-1.465.15h-.89v-.184h.797c.315 0 .555-.071.718-.21.164-.139.273-.323.332-.554.059-.231.088-.487.088-.773 0-.487-.067-.865-.197-1.133-.135-.27-.361-.404-.689-.404-.21 0-.344.05-.407.156-.063.105-.093.319-.093.638v4.59c0 .222.017.39.05.499.034.11.097.185.19.222.092.038.23.063.416.076v.185a12.95 12.95 0 0 0-.689-.025c-.281-.005-.567-.005-.857-.005-.331 0-.646 0-.94.005-.294.004-.53.012-.71.025v-.185c.193-.013.332-.038.424-.076a.306.306 0 0 0 .185-.222c.03-.11.046-.277.046-.5v-4.585a2.08 2.08 0 0 0-.046-.504.318.318 0 0 0-.189-.222 1.246 1.246 0 0 0-.42-.072v-.184h-.004Zm1.936 3.283c.222.004.432.017.63.038.197.017.377.034.545.05.168.017.307.025.424.034.66.03 1.155.147 1.487.344.331.198.533.487.605.87l.193.96c.05.228.105.387.168.471.063.088.147.13.252.13a.342.342 0 0 0 .155-.03.415.415 0 0 0 .13-.091l.122.121a1.53 1.53 0 0 1-.626.395 2.53 2.53 0 0 1-.764.105c-.403 0-.726-.071-.97-.218-.248-.147-.399-.408-.453-.781l-.139-.924a5.798 5.798 0 0 0-.139-.676 1.269 1.269 0 0 0-.222-.466.463.463 0 0 0-.378-.172h-1l-.02-.16ZM75.469 70.019v.184c-.185.005-.324.03-.42.072a.318.318 0 0 0-.19.222 2.08 2.08 0 0 0-.045.504v4.59c0 .222.017.39.05.5.034.108.097.184.189.222.092.037.231.063.416.075v.185c-.18-.013-.408-.021-.689-.025-.281-.004-.567-.004-.856-.004-.332 0-.647 0-.941.004-.294.004-.529.012-.71.025v-.185c.194-.012.332-.038.425-.075a.306.306 0 0 0 .184-.223c.03-.11.046-.277.046-.5v-4.589c0-.227-.016-.395-.046-.504a.318.318 0 0 0-.189-.222 1.246 1.246 0 0 0-.42-.072v-.184c.181.004.416.012.71.016.294.005.605.009.94.009.29 0 .576-.004.857-.008.281-.005.508-.013.689-.017Zm3.388 0v.176c-.21.055-.44.155-.697.306-.256.147-.529.387-.819.714l-1.704 1.936.751-.983 2.192 3.658c.08.13.16.239.24.323.08.088.188.168.323.24v.184c-.26-.013-.534-.021-.828-.025-.293-.004-.57-.004-.835-.004-.143 0-.32 0-.53.004-.21.004-.474.012-.797.025v-.185c.29-.012.458-.046.504-.1.046-.055.025-.16-.071-.315l-1.344-2.268a1.455 1.455 0 0 0-.168-.248.597.597 0 0 0-.143-.121.42.42 0 0 0-.18-.046v-.194c.273-.012.529-.105.768-.273.24-.167.53-.445.87-.827l.314-.352c.26-.29.395-.542.412-.756a.559.559 0 0 0-.194-.5c-.147-.122-.335-.185-.57-.189v-.176c.26.004.5.013.717.017.219.004.5.008.849.008.382 0 .692-.013.94-.03Z"/>
  <path fill="#1B3764" d="M95.22 88.985H0V0h95.22v88.985ZM.512 88.472h94.192V.513H.512v87.96Z"/>
  <path fill="#1B3764" d="M95.208 58.367H.008v.525h95.2v-.525ZM47.161 49.336c-7.604 0-12.962-3.834-13.041-3.892a.776.776 0 0 1-.168-1.08.776.776 0 0 1 1.079-.167c.458.331 11.32 8.061 24.067-.03a.774.774 0 0 1 1.067.24.774.774 0 0 1-.24 1.066c-4.564 2.893-8.947 3.863-12.764 3.863Z"/>
  <path fill="#1B3764" d="M34.64 45.221a.771.771 0 0 1-.26-1.499l4.946-1.772a.771.771 0 1 1 .52 1.453L34.9 45.175a.695.695 0 0 1-.26.046Z"/>
  <path fill="#1B3764" d="M36.76 50.901a.765.765 0 0 1-.709-.47l-2.28-5.404a.774.774 0 0 1 .412-1.012.774.774 0 0 1 1.012.412l2.28 5.404a.774.774 0 0 1-.412 1.012.775.775 0 0 1-.302.058Z"/>
</svg>
