<svg xmlns="http://www.w3.org/2000/svg">
<symbol id="logo" fill="none" viewBox="0 0 26 29">
    <path fill="currentColor" d="M4.313 22.9H25.25V.5H4.256C2.322.506.756 2.087.75 4.04V24.69c0 2.065 1.605 3.809 3.506 3.809H25.25v-1.867H4.256c-.867 0-1.657-.925-1.657-1.942 0-.97.785-1.791 1.714-1.791ZM6.297 2.386h5.547v10.081L9.048 9.988l-2.75 2.465V2.386ZM2.6 4.054a1.674 1.674 0 0 1 1.657-1.687H6.298h-1.85v12.6h1.828l2.779-2.489 2.807 2.489h1.831v-12.6h9.708v18.666H4.313c-.601 0-1.192.159-1.713.46V4.053Z"/>
</symbol>

<symbol id="cart" fill="none" viewBox="0 0 24 24">
    <path stroke="currentColor" stroke-linecap="round" stroke-linejoin="round" stroke-width="2" d="M1 1.75h4l2.68 13.39a2 2 0 0 0 2 1.61h9.72a2 2 0 0 0 2-1.61L23 6.75H6m4 15a1 1 0 1 1-2 0 1 1 0 0 1 2 0Zm11 0a1 1 0 1 1-2 0 1 1 0 0 1 2 0Z"/>
</symbol>
<symbol id="chevron-down" fill="none" viewBox="0 0 16 16">
    <path stroke="currentColor" stroke-linecap="round" stroke-linejoin="round" stroke-width="1.5" d="m4 6 4 4 4-4"/>
</symbol>
<symbol id="facebook" viewBox="0 0 320 512">
    <path fill="currentColor" d="M279.14 288l14.22-92.66h-88.91v-60.13c0-25.35 12.42-50.06 52.24-50.06h40.42V6.26S260.43 0 225.36 0c-73.22 0-121.08 44.38-121.08 124.72v70.62H22.89V288h81.39v224h100.17V288z"/>
</symbol>
<symbol id="linkedin" viewBox="0 0 448 512">
    <path fill="currentColor" d="M100.28 448H7.4V148.9h92.88zM53.79 108.1C24.09 108.1 0 83.5 0 53.8a53.79 53.79 0 0 1 107.58 0c0 29.7-24.1 54.3-53.79 54.3zM447.9 448h-92.68V302.4c0-34.7-.7-79.2-48.29-79.2-48.29 0-55.69 37.7-55.69 76.7V448h-92.78V148.9h89.08v40.8h1.3c12.4-23.5 42.69-48.3 87.88-48.3 94 0 111.28 61.9 111.28 142.3V448z"/>
</symbol>
<symbol id="twitter" viewBox="0 0 512 512">
    <path fill="currentColor" d="M459.37 151.716c.325 4.548.325 9.097.325 13.645 0 138.72-105.583 298.558-298.558 298.558-59.452 0-114.68-17.219-161.137-47.106 8.447.974 16.568 1.299 25.34 1.299 49.055 0 94.213-16.568 130.274-44.832-46.132-.975-84.792-31.188-98.112-72.772 6.498.974 12.995 1.624 19.818 1.624 9.421 0 18.843-1.3 27.614-3.573-48.081-9.747-84.143-51.98-84.143-102.985v-1.299c13.969 7.797 30.214 12.67 47.431 13.319-28.264-18.843-46.781-51.005-46.781-87.391 0-19.492 5.197-37.36 14.294-52.954 51.655 63.675 129.3 105.258 216.365 109.807-1.624-7.797-2.599-15.918-2.599-24.04 0-57.828 46.782-104.934 104.934-104.934 30.213 0 57.502 12.67 76.67 33.137 23.715-4.548 46.456-13.32 66.599-25.34-7.798 24.366-24.366 44.833-46.132 57.827 21.117-2.273 41.584-8.122 60.426-16.243-14.292 20.791-32.161 39.308-52.628 54.253z"/>
</symbol>
</svg>