<svg xmlns="http://www.w3.org/2000/svg">
<symbol id="logo" fill="none" viewBox="0 0 32 32">
    <path fill="currentColor" d="M6.359 25.6h23.927V0H6.293c-2.21.007-4 1.814-4.007 4.045v23.602c0 2.36 1.835 4.353 4.007 4.353h23.993v-2.133H6.293c-.99 0-1.894-1.058-1.894-2.22 0-1.11.898-2.047 1.96-2.047ZM8.626 2.155h6.34v11.522l-3.197-2.833-3.143 2.816V2.155ZM4.399 4.061a1.913 1.913 0 0 1 1.894-1.928h2.333-2.113v14.4h2.089l3.175-2.844 3.208 2.844h2.094v-14.4h11.094v21.334H6.358c-.687 0-1.362.181-1.958.525V4.062Z"/>
</symbol>

<symbol id="audio" fill="none" viewBox="0 0 78 78">
    <circle cx="39.5" cy="39" r="39" fill="#FFCA42"/>
    <path fill="#333" d="M51.369 39.633c0-.925.875-1.002.875-1.002h1.688v17.981H52.65c-1.354 0-1.281-.975-1.281-.975V39.633ZM28.89 39.633v16.004s.074.975-1.28.975h-1.282V38.631h1.684s.879.077.879 1.002Z"/>
    <path fill="#333" d="M22.008 39.121v-7.498c0-4.454 1.91-8.632 5.38-11.757 3.413-3.075 7.938-4.77 12.74-4.77 4.803 0 9.33 1.696 12.74 4.77 3.473 3.13 5.383 7.303 5.383 11.757v7.498c1.25.522 2.636 1.588 2.636 3.75v9.48s-.115 4.261-4.048 4.261h-2.047v-17.98h.897v-7.009c0-7.624-6.98-13.829-15.56-13.829S24.57 24 24.57 31.623v7.008h.896v17.981h-2.05c-3.932 0-4.048-4.261-4.048-4.261v-9.48c.004-2.162 1.391-3.226 2.64-3.75Z"/>
</symbol>

<symbol id="cart" fill="none" viewBox="0 0 24 24">
    <path stroke="currentColor" stroke-linecap="round" stroke-linejoin="round" stroke-width="2" d="M1 1.75h4l2.68 13.39a2 2 0 0 0 2 1.61h9.72a2 2 0 0 0 2-1.61L23 6.75H6m4 15a1 1 0 1 1-2 0 1 1 0 0 1 2 0Zm11 0a1 1 0 1 1-2 0 1 1 0 0 1 2 0Z"/>
</symbol>
<symbol id="chevron-down" fill="none" viewBox="0 0 16 16">
    <path stroke="currentColor" stroke-linecap="round" stroke-linejoin="round" stroke-width="1.5" d="m4 6 4 4 4-4"/>
</symbol>
<symbol id="facebook" viewBox="0 0 320 512">
    <path fill="currentColor" d="M279.14 288l14.22-92.66h-88.91v-60.13c0-25.35 12.42-50.06 52.24-50.06h40.42V6.26S260.43 0 225.36 0c-73.22 0-121.08 44.38-121.08 124.72v70.62H22.89V288h81.39v224h100.17V288z"/>
</symbol>
<symbol id="instagram" viewBox="0 0 448 512">
    <path fill="currentColor" d="M224.1 141c-63.6 0-114.9 51.3-114.9 114.9s51.3 114.9 114.9 114.9S339 319.5 339 255.9 287.7 141 224.1 141zm0 189.6c-41.1 0-74.7-33.5-74.7-74.7s33.5-74.7 74.7-74.7 74.7 33.5 74.7 74.7-33.6 74.7-74.7 74.7zm146.4-194.3c0 14.9-12 26.8-26.8 26.8-14.9 0-26.8-12-26.8-26.8s12-26.8 26.8-26.8 26.8 12 26.8 26.8zm76.1 27.2c-1.7-35.9-9.9-67.7-36.2-93.9-26.2-26.2-58-34.4-93.9-36.2-37-2.1-147.9-2.1-184.9 0-35.8 1.7-67.6 9.9-93.9 36.1s-34.4 58-36.2 93.9c-2.1 37-2.1 147.9 0 184.9 1.7 35.9 9.9 67.7 36.2 93.9s58 34.4 93.9 36.2c37 2.1 147.9 2.1 184.9 0 35.9-1.7 67.7-9.9 93.9-36.2 26.2-26.2 34.4-58 36.2-93.9 2.1-37 2.1-147.8 0-184.8zM398.8 388c-7.8 19.6-22.9 34.7-42.6 42.6-29.5 11.7-99.5 9-132.1 9s-102.7 2.6-132.1-9c-19.6-7.8-34.7-22.9-42.6-42.6-11.7-29.5-9-99.5-9-132.1s-2.6-102.7 9-132.1c7.8-19.6 22.9-34.7 42.6-42.6 29.5-11.7 99.5-9 132.1-9s102.7-2.6 132.1 9c19.6 7.8 34.7 22.9 42.6 42.6 11.7 29.5 9 99.5 9 132.1s2.7 102.7-9 132.1z"/>
</symbol>
<symbol id="linkedin" viewBox="0 0 448 512">
    <path fill="currentColor" d="M100.28 448H7.4V148.9h92.88zM53.79 108.1C24.09 108.1 0 83.5 0 53.8a53.79 53.79 0 0 1 107.58 0c0 29.7-24.1 54.3-53.79 54.3zM447.9 448h-92.68V302.4c0-34.7-.7-79.2-48.29-79.2-48.29 0-55.69 37.7-55.69 76.7V448h-92.78V148.9h89.08v40.8h1.3c12.4-23.5 42.69-48.3 87.88-48.3 94 0 111.28 61.9 111.28 142.3V448z"/>
</symbol>
<symbol id="twitter" viewBox="0 0 512 512">
    <path fill="currentColor" d="M459.37 151.716c.325 4.548.325 9.097.325 13.645 0 138.72-105.583 298.558-298.558 298.558-59.452 0-114.68-17.219-161.137-47.106 8.447.974 16.568 1.299 25.34 1.299 49.055 0 94.213-16.568 130.274-44.832-46.132-.975-84.792-31.188-98.112-72.772 6.498.974 12.995 1.624 19.818 1.624 9.421 0 18.843-1.3 27.614-3.573-48.081-9.747-84.143-51.98-84.143-102.985v-1.299c13.969 7.797 30.214 12.67 47.431 13.319-28.264-18.843-46.781-51.005-46.781-87.391 0-19.492 5.197-37.36 14.294-52.954 51.655 63.675 129.3 105.258 216.365 109.807-1.624-7.797-2.599-15.918-2.599-24.04 0-57.828 46.782-104.934 104.934-104.934 30.213 0 57.502 12.67 76.67 33.137 23.715-4.548 46.456-13.32 66.599-25.34-7.798 24.366-24.366 44.833-46.132 57.827 21.117-2.273 41.584-8.122 60.426-16.243-14.292 20.791-32.161 39.308-52.628 54.253z"/>
</symbol>

<symbol id="shipping" fill="none" viewBox="0 0 40 43">
    <path stroke="currentColor" stroke-linecap="round" stroke-linejoin="round" stroke-width="2" d="M39 29.959v-16.42a3.01 3.01 0 0 0-.422-1.532 3.123 3.123 0 0 0-1.15-1.124L22.386 2.376a4.85 4.85 0 0 0-2.387-.626 4.85 4.85 0 0 0-2.387.626l-15.04 8.507c-.477.27-.874.658-1.15 1.124A3.01 3.01 0 0 0 1 13.538V29.96c0 .538.146 1.066.422 1.532.275.466.672.854 1.15 1.125l15.042 8.507c.725.409 1.549.625 2.387.625.838 0 1.662-.216 2.387-.625l15.041-8.507c.478-.271.875-.659 1.15-1.125A3.01 3.01 0 0 0 39 29.959ZM20 22.518V41.75m0-19.232L1.99 12.373M20 22.518l18.703-10.145"/>
</symbol>
<symbol id="satisfaction" fill="none" viewBox="0 0 32 45">
    <path stroke="currentColor" stroke-linecap="round" stroke-linejoin="round" stroke-width="2" d="M21.557 1.493 1 26.9h12l-2.954 16.24a.221.221 0 0 0 .219.26v0a.22.22 0 0 0 .177-.089L31 17.9H19l2.968-16.243a.23.23 0 0 0-.228-.258v0a.227.227 0 0 0-.183.094v0Z"/>
</symbol>
<symbol id="secure" fill="none" viewBox="0 0 38 38">
    <path stroke="currentColor" stroke-linecap="round" stroke-linejoin="round" stroke-width="2" d="m25.923 12.077-9.588 11.077-4.258-4.171"/>
    <path stroke="currentColor" stroke-linecap="round" stroke-linejoin="round" stroke-width="2" d="M36.922 6.57C29.184 5.183 25.985 4.155 19 1 12.015 4.154 8.816 5.182 1.078 6.57-.324 28.79 17.666 36.464 19 37c1.334-.537 19.324-8.21 17.922-30.43Z"/>
</symbol>

</svg>